<svg width="200pt" height="200pt" version="1.0" viewBox="0 0 200 200" xmlns="http://www.w3.org/2000/svg">
 <g transform="matrix(.1 0 0 -.1 3.1356 211.05)">
  <g transform="translate(0,-2.5e-5)">
   <path d="m251.18 1536.4c-52.328-28.431-53.396-43.215-51.26-442.39 3.2038-370.74 3.2038-373.02 27.766-398.04 26.373-25.823 26.206-25.516 552.11-26.157 611.92 0 576.03-12.027 593.11 116.48 5.3395 38.666 14.951 77.333 21.358 84.156 6.4076 6.8235 63.655 11.959 154.43 15.371 217.85 7.9607 202.9-11.305 202.9 335.55 0 268.39 0 272.94-24.562 297.96-32.265 28.19-32.376 27.676-736.86 28.431-557.45 2.2746-717.64 0-739-11.372zm1401.2-96.786c20.29-21.608 21.987-439.35 1.6967-460.96-9.6112-10.235-33.037-18.217-138.76-21.628-184.75-6.8235-199.77-17.677-214.72-131.4-5.3396-38.666-7.14-79.612-13.548-86.436-18.154-19.333-967.86 16.342-986.01 35.675-10.679 11.372-20.942 64.895-23.078 309.4-2.1358 176.27 1.4338 317.65 4.6376 338.12 4.2717 23.882 25.213 34.298 40.164 41.122 12.815 5.6863 286.16-0.5832 667.41-1.7204 541.43-2.2744 651.54-10.801 662.21-22.173z" fill="#ff6347"/>
   <path d="m300 1487c-49-25-50-38-48-389 3-326 3-328 26-350 27.886-23.676 30.014-23.454 517-23 573 0.53414 529-8 545 105 5 34 14 68 20 74s70 13 155 16c204 7 190-15 190 290 0 236 1.5821 234.8-21.289 261.44-35.224 26.908-37.598 26.409-691.71 25.557-522 2-672 0-692-10zm1342-55c19.319-16.595 19-425 0-444-9-9-58-15-157-18-173-6-181-10-195-110-5-34-14-68-20-74-17-17-935-15-952 2-10 10-14 80-16 295-2 155 0 297 3 315 4 21 14 36 28 42 12 5 302 8 659 7 507-2 631.01 1.3109 650-15z"/>
  </g>
  <g transform="translate(-24.088 92.131)" display="none" fill="#fff" stroke-linecap="round" stroke-linejoin="round">
   <path transform="translate(21.893 -112.63)" d="m286.48 1466h1383.3v-507.8h-352.81v-198.9l-1030.6-0.0606z" display="inline" stroke="#ff6347" stroke-width="160" style="paint-order:stroke fill markers"/>
   <path transform="translate(21.893 -112.63)" d="m286.48 1466h1383.3v-507.8h-352.81v-198.9l-1030.6-0.0606z" stroke="#000" stroke-width="90" style="paint-order:stroke fill markers"/>
  </g>
  <g transform="translate(0,-2.5e-5)">
   <path d="m990 1275 34-35h-424v-50h424l-68-70h35c30 0 44 8 81 48l45 47-46 48c-37 38-52 47-80 47h-35z"/>
   <path d="m608 1072-45-47 46-48c37-38 52-47 80-47h35l-68 70h424v50h-424l68 70h-35c-30 0-44-8-81-48z"/>
  </g>
  <path transform="translate(0,-2.5e-5)" d="m1510 1376c0-7 11-21 25-30s25-23 25-31 9-15 20-15c28 0 26 35-5 65-26 27-65 33-65 11z"/>
 </g>
</svg>
